<?xml version="1.0" encoding="utf-8" ?>
<svg xmlns="http://www.w3.org/2000/svg" xmlns:xlink="http://www.w3.org/1999/xlink" width="500" height="200">
	<path fill="#FEFEFE" fill-opacity="0.97647059" d="M299.188 72.2574C300.169 72.1994 301.193 72.218 302.125 71.8775C302.217 71.7395 302.41 71.5237 302.46 71.375C302.827 70.2867 302.485 67.7884 302.486 66.5316L302.473 48.5784C302.473 46.8783 302.076 43.8052 302.735 42.3165C303.205 41.2562 302.491 39.9717 303.177 38.9592L303.166 72.4692C301.926 72.4647 300.366 72.6205 299.188 72.2574Z"/>
	<path fill="#FEFEFE" fill-opacity="0.97647059" d="M302.459 119.228L303.068 119.632L303.248 128.111L303.17 148.398L303.173 154.179C303.177 154.99 303.324 156.084 303.032 156.84C302.566 156.215 302.566 155.347 302.513 154.578C302.105 148.634 302.483 142.395 302.492 136.426C302.5 130.742 302.152 124.884 302.459 119.228Z"/>
	<path fill="#FEFEFE" d="M214.799 129.584C215.417 129.438 215.995 129.446 216.625 129.456L216.954 129.875L209.996 150.914C206.34 151.424 201.897 151.378 198.216 151.045L197.265 148.862L193.233 136.156C192.931 135.083 192.325 133.576 192.435 132.495C192.534 132.399 192.764 132.112 192.875 132.066C193.471 131.822 194.978 131.938 195.696 131.847L208.94 130.129L214.799 129.584Z"/>
	<path fill="#FEFEFE" d="M173.549 134.311C174.162 134.193 174.275 134.187 174.875 134.452C175.253 137.157 175.225 178.883 174.826 180.092C172.172 180.701 169.243 180.383 166.529 180.391L152.273 180.453C151.916 180.394 151.616 180.17 151.313 179.982C150.865 177.867 151.031 175.45 151.027 173.291L151.019 162.144L151.033 147.028C151.041 144.055 150.816 140.801 151.342 137.875C151.469 137.724 151.787 137.239 151.937 137.165C152.639 136.819 154.024 136.815 154.819 136.716L162.498 135.891C163.761 135.777 165.035 135.378 166.306 135.218C168.778 134.909 171.101 134.925 173.549 134.311Z"/>
	<path fill="#FEFEFE" d="M256.069 124.575C256.552 124.489 256.781 124.563 257.209 124.792C257.317 125.014 257.416 125.251 257.439 125.5C257.676 128.055 257.487 130.823 257.487 133.4L257.479 148.812L257.501 167.831L257.499 178.773C257.472 179.317 257.419 179.649 257.044 180.069C255.06 180.835 251.952 180.404 249.815 180.41L235.061 180.329C234.486 180.336 234.224 180.094 233.805 179.75C233.365 177.82 233.528 175.676 233.522 173.704L233.507 163.709L233.591 132.147C233.641 130.855 233.566 128.842 234.125 127.683C235.136 126.782 236.385 127.109 237.625 126.931L245.645 125.967C249.083 125.598 252.673 125.204 256.069 124.575Z"/>
	<path fill="#FEFEFE" d="M151.843 16.125C153.825 15.6068 156.632 15.9542 158.701 15.9563L168.749 15.9028C170.226 15.8953 172.318 15.6335 173.625 16.3686C173.9 16.6195 174.134 16.8839 174.272 17.2357L177.265 26.0462L183.054 42.75L187.942 56.6935C188.607 58.6306 189.538 60.6067 189.911 62.625L189.125 62.7747L167.777 60.9659L156.81 60.0776C155.568 59.9885 154.297 60.1102 153.062 59.9415C152.439 59.8563 151.926 59.7042 151.375 59.4004L151.22 58.7957C150.659 55.9538 151.02 52.279 151.015 49.3532L151.012 29.0668L151.09 20.3589C151.11 19.4165 150.984 17.8778 151.259 17C151.338 16.7495 151.687 16.3584 151.843 16.125Z"/>
	<path fill="#FEFEFE" d="M255.649 15.8599C256.204 15.8562 256.602 15.8774 257.125 16.0871C257.272 16.3315 257.402 16.5885 257.438 16.875C257.657 18.6181 257.484 20.5683 257.483 22.3355L257.476 33.2486L257.509 68.6541L223.278 65.8185C221.679 65.6599 219.633 65.7926 218.14 65.2273C217.782 65.0917 217.765 64.8354 217.614 64.5L229.509 29.75L232.126 22.1011C232.66 20.4799 233.206 17.748 234.336 16.5044C234.426 16.4055 234.662 16.1232 234.774 16.0723C235.724 15.6385 238.696 15.9499 239.819 15.9519L255.649 15.8599Z"/>
	<path fill="#FEFEFE" d="M87.0033 144.905C88.0189 144.733 88.9773 144.453 89.875 145.033C90.1611 146.575 90.0193 148.186 90.0256 149.749C90.0348 152.05 90.1342 154.293 89.982 156.596L116.111 156.543L128.208 156.535C130.327 156.534 132.525 156.409 134.634 156.574C135.097 156.61 135.481 156.767 135.875 157.01C136.969 159.044 136.707 176.874 136.334 180.127C133.456 180.497 130.598 180.413 127.703 180.409L115.875 180.383L66.4174 180.339L66.3207 179.581C66.0499 176.516 65.674 148.87 66.7803 147.549C68.2012 146.768 69.0215 147.04 70.5212 146.845L78.5 145.91C81.396 145.565 84.0649 145.01 87.0033 144.905Z"/>
	<path fill="#FEFEFE" d="M66.9901 16.125C68.8937 15.541 72.1273 15.9566 74.1753 15.957L91.4555 15.9645L118.286 15.9581L134.084 15.9749C134.583 15.9925 135.484 15.9683 135.837 16.3933C136.945 17.7277 136.635 35.3301 136.334 38.1377C134.092 38.5708 131.741 38.4304 129.465 38.4283L118.875 38.395L90.0252 38.2874C90.2722 42.3575 90.0472 46.4798 90.0647 50.5637C90.0681 51.3471 90.3612 53.2498 90.1385 53.875C90.0874 54.0183 89.8182 54.2757 89.7137 54.4066C88.0634 54.5296 86.6904 54.1908 85.0728 54.0901C78.8691 53.704 72.5221 53.2968 66.3852 52.3332C65.7958 50.057 66.1852 46.7674 66.1775 44.3607L66.1622 26.375L66.2376 19.793C66.2552 18.9234 66.1341 17.734 66.4005 16.9235C66.5031 16.6112 66.7617 16.3518 66.9901 16.125Z"/>
	<path fill="#FEFEFE" d="M376.831 16.125L377.064 16.0696C378.681 15.728 380.774 15.9555 382.442 15.9573L392.805 15.9314C394.27 15.9263 397.565 15.5492 398.875 16.077C399.108 16.171 399.408 16.424 399.625 16.5654C400.04 18.5544 399.846 20.8612 399.851 22.8937L399.762 36.6189L399.674 74.3963C402.891 69.9936 406.11 66.1659 411.279 63.9857C417.656 61.2962 426.328 61.0071 432.789 63.6737C437.16 65.4776 442.147 70.3305 443.929 74.7161C445.255 78.1032 445.875 80.8324 446.102 84.4619C442.799 84.6388 439.61 84.0196 436.334 83.7653L412.918 81.7551L389.024 79.7273L377.691 78.9818C377.351 78.9439 377.079 78.8181 376.788 78.6433C376.348 78.379 376.335 78.259 376.225 77.7595C375.703 75.3901 376.003 72.3575 375.999 69.9251L375.999 54.0313L376.009 27.8584L376.087 20.1138C376.107 19.2094 376.006 17.8448 376.254 17C376.326 16.7554 376.68 16.354 376.831 16.125Z"/>
	<path fill="#FEFEFE" d="M299.188 72.2574C296.318 71.6796 293.076 71.6838 290.144 71.475L279.528 70.5022L279.487 70.2987C278.974 67.5498 279.062 18.124 279.514 17C279.603 16.7792 279.862 16.4819 280 16.2774C280.422 16.1397 280.839 16.0397 281.284 16.0168L297.47 15.9577L311.112 15.9657C316.857 15.9731 322.614 16.0571 328.217 17.4835C333.772 18.8977 339.121 21.5391 343.346 25.4352C350.321 31.8688 353.633 40.3134 354.955 49.5239C355.134 50.7735 355.517 51.9814 355.599 53.25C356.102 61.0983 355.387 69.0834 355.715 76.9484L332.116 75.1602C331.779 74.6404 331.926 72.8057 331.912 72.1471C331.748 64.471 333.189 49.7011 327.906 43.5574C321.626 36.2554 312.037 38.9673 303.625 38.317L303.177 38.9592C302.491 39.9717 303.205 41.2562 302.735 42.3165C302.076 43.8052 302.473 46.8783 302.473 48.5784L302.486 66.5316C302.485 67.7884 302.827 70.2867 302.46 71.375C302.41 71.5237 302.217 71.7395 302.125 71.8775C301.193 72.218 300.169 72.1994 299.188 72.2574Z"/>
	<path fill="#FEFEFE" d="M303.032 156.84C303.033 157.272 303.115 157.467 303.375 157.81C304.939 158.04 306.677 157.91 308.263 157.94C313.572 158.04 318.675 158.232 323.628 155.98C332.04 152.155 331.812 140.974 331.824 133.185L331.908 121.971C331.938 120.227 331.605 117.88 332.221 116.25C332.364 116.106 332.713 115.66 332.875 115.593C334.203 115.051 336.776 115.179 338.266 115.014L349.375 113.627C351.044 113.411 354.181 112.642 355.482 113.625L355.678 127.089C355.79 139.753 355.955 153.447 348.454 164.359C343.097 172.152 334.809 176.904 325.709 179.021C324.176 179.378 322.626 179.419 321.081 179.703C316.562 180.535 311.722 180.383 307.144 180.393L289.773 180.402C286.88 180.402 283.332 180.83 280.5 180.406C280.17 180.356 279.895 180.201 279.625 180.014C279.506 179.73 279.403 179.436 279.374 179.128C279.116 176.408 279.28 173.476 279.279 170.739L279.292 155.236L279.261 135.505C279.26 131.63 279.118 127.632 279.419 123.77C279.482 122.946 279.491 122.685 280.018 122.068C281.538 121.537 283.06 121.457 284.644 121.257L293.031 120.299C296.028 119.931 299.448 119.113 302.459 119.228C302.152 124.884 302.5 130.742 302.492 136.426C302.483 142.395 302.105 148.634 302.513 154.578C302.566 155.347 302.566 156.215 303.032 156.84Z"/>
	<path fill="#FEFEFE" d="M445.079 102.353C445.647 102.39 445.718 102.508 446.125 102.873C446.624 107.143 446.552 111.345 446.54 115.635L446.519 130.672C446.511 138.77 446.971 147.052 446.485 155.125C446.034 162.627 443.822 171.131 438.052 176.282C432.467 181.268 425.247 181.923 418.105 181.475C410.324 180.988 404.626 175.244 399.763 169.759L399.823 180.159C396.536 180.665 392.995 180.418 389.666 180.424L376.303 180.341C375.604 176.395 376.016 171.868 376.014 167.841L376.017 144.125L376.125 112.455C376.207 111.473 376.282 110.986 377.038 110.339L391.375 108.739C393.81 108.449 396.986 107.648 399.375 108.117C400.267 109.413 399.85 112.491 399.865 114.141L399.756 134.995C399.754 139.821 399.088 146.017 400.923 150.537C402.098 153.432 404.167 155.933 407.087 157.156C409.72 158.259 413.397 158.175 416.036 157.072C419.359 155.685 421.03 152.452 421.929 149.13C422.434 147.263 422.448 145.613 422.583 143.711C422.886 139.448 422.749 135.142 422.738 130.868L422.77 112.608C422.776 110.752 422.301 107.296 422.986 105.625C424.021 104.683 426.177 104.663 427.544 104.447L445.079 102.353Z"/>
</svg>
