<?xml version="1.0" encoding="utf-8" ?>
<svg xmlns="http://www.w3.org/2000/svg" xmlns:xlink="http://www.w3.org/1999/xlink" width="500" height="200">
	<path fill="#FE12DB" d="M319.871 75.125C322.235 74.7093 325.136 75.4566 327.538 75.6791L336.479 76.3393C338.451 76.4764 341.067 76.0181 342.922 76.625C343.871 78.5684 343.401 82.62 343.423 84.8468L343.474 104.403C343.471 107.038 343.223 109.755 343.385 112.375C342.691 113.041 342.111 112.958 341.191 113.07L331.625 114.31L325.277 115.203C323.467 115.482 321.174 115.931 319.375 115.571C318.8 114.99 318.826 114.555 318.778 113.764C318.586 110.61 318.959 107.22 318.961 104.028L318.938 78.072C318.936 76.7136 318.907 76.0859 319.871 75.125Z"/>
	<path fill="#FE12DB" d="M266.86 70.875C268.569 70.2906 271.434 70.8901 273.283 71.0326L290.494 72.6822C291.087 81.5423 290.713 90.5395 290.723 99.4234C290.731 105.769 291.224 112.529 290.604 118.828C289.827 119.496 289.183 119.427 288.19 119.542L266.419 121.952L266.401 121.595L266.401 112.154L266.405 93.9691L266.395 79.0275C266.39 76.7991 266.197 74.5241 266.332 72.3023C266.367 71.7225 266.463 71.3115 266.86 70.875Z"/>
	<path fill="#FE12DB" d="M363.556 78.875C363.677 78.8043 363.779 78.7454 363.92 78.7228C364.811 78.5808 366.081 78.8795 366.993 78.9488L375.313 79.6016L414.959 83.1484L427.727 84.2331C429.196 84.3459 431.236 84.1955 432.625 84.56C432.864 84.6227 433.283 84.9806 433.509 85.125C434.395 87.2445 433.896 89.2931 434.022 91.5C434.074 92.417 434.342 93.309 434.392 94.2306L434.481 101.835C434.391 101.918 434.32 101.99 434.204 102.037C431.929 102.961 411.643 105.502 410.315 104.863C410.099 104.76 409.973 104.175 409.887 103.937C409.849 99.1609 410.312 92.2697 406.833 88.4737C404.921 86.3874 402.462 85.6408 399.708 85.5209C396.454 85.3792 393.535 86.2722 391.122 88.52C387.58 91.8209 387.554 95.8242 387.529 100.318L387.438 107.901L363.345 110.832C363.058 107.713 363.176 104.616 363.18 101.489L363.184 87.0787L363.142 81.6869C363.138 81.1041 362.996 80.1929 363.129 79.6617C363.183 79.4445 363.443 79.0825 363.556 78.875Z"/>
	<path fill="#FE12DB" d="M53.7 52.875C55.2002 52.3542 57.226 52.877 58.7994 53.027L67.6105 53.8268L75.3312 54.2467C76.3966 54.3077 76.738 54.3267 77.45 55.125L77.6307 75.4412C77.6242 78.9453 77.9553 82.7576 77.3657 86.2014L117.972 86.1339L118.673 108.806L80.9928 108.811L77.4251 108.627L77.7292 143.715C77.0092 144.25 73.7886 144.194 72.7379 144.319L53.4155 146.67C53.0437 142.591 53.3007 138.399 53.303 134.302L53.3075 111.475L53.3037 71.6496L53.2194 54.8947C53.236 54.1514 53.2171 53.4893 53.7 52.875Z"/>
	<path fill="#FE12DB" d="M138.775 60.125C139.948 59.6712 141.649 60.1085 142.875 60.1787L150.998 60.8257L161.753 61.5457L169.565 62.3586C171.799 62.5208 174.599 62.2049 176.732 62.695C178.189 63.0299 178.772 66.8513 179.603 68.1488C180.327 69.2786 180.303 70.8687 180.771 72.1356L185.947 87.1426C186.197 87.8751 186.825 88.3667 186.979 89.1535C187.608 92.3717 188.965 95.5796 190.1 98.6588C190.67 100.205 191.04 101.787 191.652 103.324C193.159 99.3197 194.188 95.0511 195.559 91L201.214 74.9726C202.363 71.7771 202.995 68.5022 204.699 65.5111C206.671 65.4442 208.651 65.7386 210.621 65.8381L234.084 67.9417C237.68 68.3114 241.428 68.2188 244.947 69.0022C245.546 74.6467 245.195 80.5984 245.195 86.2913L245.342 123.556C245.156 123.787 245.023 123.852 244.745 123.955C242.366 124.835 239.512 124.92 237 125.195L227.043 126.371C225.562 126.552 222.764 127.374 221.375 127.028C221.15 126.972 220.842 126.777 220.625 126.675C220.234 122.353 220.559 117.741 220.568 113.382L220.588 89.3793L221.033 81.625L220.948 80.8961L220.625 80.7745L204.963 128.83C203.892 129.278 202.665 129.332 201.525 129.497L193.482 130.39L178.979 132.069C177.625 129.34 177.11 126.26 176.164 123.372C175.855 122.428 175.265 121.572 175.006 120.616C174.696 119.467 174.707 118.248 174.363 117.098C174.081 116.156 173.42 115.374 173.067 114.464C172.664 113.428 172.717 112.239 172.386 111.182C171.991 109.919 171.179 108.803 170.803 107.52L165.041 89.125C164.099 86.1065 163.53 82.937 162.403 79.9752C162.119 82.3361 162.322 84.3889 162.424 86.7301L162.594 120.779L162.53 130.889C162.509 131.368 162.593 132.573 162.414 132.986C162.349 133.135 161.996 133.443 161.875 133.575C158.522 134.623 154.598 134.891 151.1 135.257L143.694 136.217C142.627 136.336 140.367 136.898 139.375 136.693C139.153 136.647 138.843 136.466 138.628 136.375L138.282 135.528C137.878 134.23 138.232 131.948 138.239 130.546L138.245 117.628L138.233 80.0285L138.22 62.2475C138.245 61.4745 138.414 60.8071 138.775 60.125Z"/>
</svg>
